<svg width="424" height="424" viewBox="0 0 424 424" fill="none" xmlns="http://www.w3.org/2000/svg">
<path d="M211.996 380.479C305.154 380.479 380.672 304.962 380.672 211.803C380.672 118.644 305.154 43.1268 211.996 43.1268C118.837 43.1268 43.3193 118.644 43.3193 211.803C43.3193 304.962 118.837 380.479 211.996 380.479Z" fill="#F3F5FF"/>
<path d="M16.6563 337.742H407.344" stroke="#CCCCCC" stroke-linecap="round" stroke-linejoin="round"/>
<path d="M250.778 151.94C255.609 151.94 259.529 148.02 259.529 143.19C259.529 138.359 255.609 134.439 250.778 134.439C245.948 134.439 242.028 138.359 242.028 143.19C242.028 148.02 245.948 151.94 250.778 151.94Z" fill="#22BE8D"/>
<path d="M264.823 139.401H343.036" stroke="black" stroke-linecap="round" stroke-linejoin="round"/>
<path d="M264.823 145.517H276.426" stroke="black" stroke-linecap="round" stroke-linejoin="round"/>
<path d="M247.269 144.109L249.754 145.797L254.287 140.573" stroke="white" stroke-linecap="round" stroke-linejoin="round"/>
<path d="M250.778 181.815C255.609 181.815 259.529 177.895 259.529 173.064C259.529 168.234 255.609 164.314 250.778 164.314C245.948 164.314 242.028 168.234 242.028 173.064C242.028 177.895 245.948 181.815 250.778 181.815Z" fill="#22BE8D"/>
<path d="M264.823 169.275H343.036" stroke="black" stroke-linecap="round" stroke-linejoin="round"/>
<path d="M264.823 175.392H276.426" stroke="black" stroke-linecap="round" stroke-linejoin="round"/>
<path d="M247.269 173.983L249.754 175.672L254.287 170.448" stroke="white" stroke-linecap="round" stroke-linejoin="round"/>
<path d="M250.778 211.689C255.609 211.689 259.529 207.769 259.529 202.939C259.529 198.108 255.609 194.188 250.778 194.188C245.948 194.188 242.028 198.108 242.028 202.939C242.028 207.769 245.948 211.689 250.778 211.689Z" fill="#22BE8D"/>
<path d="M264.823 199.15H343.036" stroke="black" stroke-linecap="round" stroke-linejoin="round"/>
<path d="M264.823 205.275H276.426" stroke="black" stroke-linecap="round" stroke-linejoin="round"/>
<path d="M247.269 203.858L249.754 205.546L254.287 200.322" stroke="white" stroke-linecap="round" stroke-linejoin="round"/>
<path d="M152.308 210.779L185.28 204.864C194.932 203.131 204.636 207.673 209.484 216.205L274.387 330.347H170.413L152.317 210.788L152.308 210.779Z" fill="#002EFF"/>
<path d="M169.144 330.347H273.118L228.753 252.318H157.331L169.144 330.347Z" fill="white"/>
<path d="M273.118 331.607H169.144C168.523 331.607 167.989 331.152 167.901 330.531L156.088 252.502C156.036 252.135 156.141 251.767 156.377 251.487C156.613 251.207 156.963 251.049 157.331 251.049H228.753C229.208 251.049 229.628 251.294 229.847 251.688L274.212 329.717C274.431 330.111 274.431 330.584 274.212 330.977C273.985 331.362 273.573 331.607 273.118 331.607Z" fill="white" stroke="black" stroke-linecap="round" stroke-linejoin="round"/>
<path d="M78.5142 245.598L112.178 200.646C120.394 189.673 135.883 187.686 146.524 196.253L162.249 208.915L169.1 201.521H169.407C182.419 201.521 193.628 210.849 196.175 223.818L202.02 337.216H65.4933L78.5142 245.598Z" fill="#002EFF"/>
<path d="M211.969 289.43L192.184 277.975H220.816C222.094 277.975 223.249 278.579 223.975 279.62C224.71 280.67 224.876 281.957 224.439 283.155C223.074 286.909 219.477 289.43 215.487 289.43H211.961H211.969Z" fill="white"/>
<path d="M220.825 278.631C221.884 278.631 222.846 279.13 223.45 279.996C224.054 280.863 224.203 281.93 223.835 282.928C222.566 286.419 219.215 288.765 215.496 288.765H212.153L194.634 278.623H220.825M220.825 277.31H189.752L211.803 290.077H215.505C219.784 290.077 223.616 287.399 225.078 283.374C226.145 280.425 223.966 277.31 220.834 277.31H220.825Z" fill="black"/>
<path d="M69.0111 338.065C57.8453 338.065 47.7384 331.677 42.6368 321.395C37.5352 311.114 38.6553 299.484 45.6382 290.287L79.048 246.263C113.937 246.368 127.64 262.854 129.723 265.672L108.739 288.668L186.671 278.071C187.695 277.931 188.623 277.861 189.515 277.861C193.882 277.861 196.892 279.506 202.361 282.49C203.726 283.234 205.24 284.065 206.955 284.958L236.996 302.232C237.154 302.319 237.259 302.468 237.294 302.643C237.329 302.818 237.285 302.993 237.171 303.133C235.683 305.014 233.461 306.091 231.081 306.091C230.871 306.091 230.661 306.091 230.451 306.064C220.895 305.277 204.663 298.793 201.022 296.789L196.42 294.251L225.104 321.107C225.559 321.527 225.778 322.131 225.717 322.743C225.655 323.356 225.314 323.898 224.789 324.222C222.829 325.429 220.589 326.06 218.287 326.06C215.828 326.06 213.448 325.342 211.409 323.977L211.103 323.776L207.297 325.543C205.511 326.375 203.613 326.795 201.644 326.795C198.878 326.795 196.21 325.955 193.943 324.371L182.76 316.539C181.929 315.953 180.949 315.646 179.933 315.646C179.592 315.646 179.26 315.681 178.927 315.751L75.4515 337.4C73.3076 337.847 71.1462 338.074 69.0286 338.074H69.0111V338.065Z" fill="white"/>
<path d="M79.3717 246.91C98.7718 247.024 111.311 252.266 118.443 256.676C124.367 260.343 127.631 264.035 128.865 265.619L109.474 286.874L107.032 289.543L110.62 289.053L186.759 278.701C187.748 278.57 188.649 278.5 189.507 278.5C193.707 278.5 196.665 280.119 202.037 283.05C203.385 283.785 204.908 284.617 206.614 285.518L236.602 302.757C235.237 304.446 233.225 305.417 231.063 305.417C230.871 305.417 230.678 305.417 230.486 305.391C221.017 304.612 204.925 298.18 201.32 296.194L192.106 291.11L199.789 298.303L224.631 321.562C224.929 321.842 225.086 322.244 225.043 322.656C224.999 323.067 224.771 323.426 224.421 323.644C222.566 324.782 220.44 325.386 218.261 325.386C215.933 325.386 213.676 324.703 211.742 323.408L211.129 322.997L210.464 323.303L206.99 324.913C205.293 325.701 203.49 326.103 201.617 326.103C198.983 326.103 196.455 325.307 194.293 323.793L183.11 315.961C182.165 315.305 181.062 314.955 179.907 314.955C179.522 314.955 179.137 314.999 178.761 315.078L75.2852 336.726C73.1851 337.164 71.0674 337.392 68.9935 337.392C58.0816 337.392 48.2021 331.144 43.2056 321.08C38.2177 311.035 39.3116 299.659 46.1458 290.655L79.3542 246.893M78.7067 245.58L45.0957 289.867C29.4759 310.448 45.0169 338.704 68.9848 338.704C71.1112 338.704 73.2988 338.485 75.539 338.013L179.015 316.364C179.303 316.303 179.601 316.276 179.89 316.276C180.756 316.276 181.614 316.539 182.34 317.046L193.523 324.878C195.93 326.558 198.756 327.425 201.6 327.425C203.613 327.425 205.634 326.996 207.524 326.112L210.998 324.502C213.186 325.963 215.715 326.698 218.244 326.698C220.615 326.698 222.986 326.051 225.086 324.764C226.565 323.854 226.767 321.789 225.507 320.608L200.664 297.349C204.059 299.221 220.361 305.889 230.354 306.703C230.582 306.721 230.809 306.729 231.046 306.729C233.61 306.729 236.042 305.557 237.652 303.527C238.134 302.923 237.959 302.03 237.294 301.645L207.235 284.363C198.686 279.883 195.168 277.187 189.498 277.187C188.588 277.187 187.625 277.257 186.566 277.397L110.428 287.749L130.545 265.698C130.545 265.698 117.778 245.58 78.7067 245.58Z" fill="black"/>
<path d="M293.665 337.217H144.599V331.721C144.599 328.265 147.408 325.464 150.855 325.464H293.665V337.217Z" fill="black"/>
<path d="M235.823 337.216H371.361L401.148 247.19C404.027 238.492 397.552 229.532 388.39 229.532H281.16C275.367 229.532 270.222 233.251 268.402 238.746L235.823 337.216Z" fill="black"/>
<path d="M150.068 197.233L173.388 198.485L194.258 205.345L193.471 208.635C189.9 223.555 172.959 228.202 163.587 216.826L150.068 197.233Z" fill="white"/>
<path d="M75.749 293.674L115.057 287.767" stroke="black" stroke-linecap="round" stroke-linejoin="round"/>
<path d="M128.813 266.626L151.162 243.235" stroke="black" stroke-linecap="round" stroke-linejoin="round"/>
<path d="M184.554 201.871L194.258 205.345" stroke="black" stroke-linecap="round" stroke-linejoin="round"/>
<path d="M191.257 291.206L199.509 296.334" stroke="black" stroke-linecap="round" stroke-linejoin="round"/>
<path d="M190.784 305.819L211.462 324.064" stroke="black" stroke-linecap="round" stroke-linejoin="round"/>
<path d="M215.933 131.665C215.933 131.665 223.564 134.798 221.744 140.617C220.37 145.01 213.763 144.126 213.763 144.126L208.74 133.319L215.942 131.665H215.933Z" fill="black"/>
<path d="M154.452 149.691C154.889 147.066 155.476 145.465 155.476 145.465L170.387 119.747L195.265 115.302L210.421 130.073C210.421 130.073 214.551 135.927 216.625 145.019C220.37 143.452 225.104 143.216 227.187 150.295C229.112 156.841 222.251 161.986 217.088 162.712C216.625 165.302 215.898 167.971 214.848 170.702C209.405 184.834 196.962 190.39 184.545 188.745L184.571 201.871L194.267 205.345L191.572 213.422C190.224 217.447 186.978 220.554 182.891 221.718C176.057 223.669 168.724 222.68 162.642 219.005C156.438 215.251 151.66 209.545 149.053 202.781L146.541 196.253L156.386 197.566L158.381 171.48C157.436 169.888 156.683 168.295 156.088 166.72C151.144 167.98 141.107 162.747 142.962 154.986C144.87 147.023 150.505 147.898 154.461 149.674V149.691H154.452Z" fill="white" stroke="black" stroke-miterlimit="10"/>
<path d="M155.563 154.627C155.563 154.627 167.193 146.016 166.545 133.722C166.545 133.722 181.421 130.221 185.166 124.595C185.166 124.595 196.052 134.238 201.512 130.624C204.558 128.611 201.075 124.105 201.075 124.105C201.075 124.105 209.624 135.025 217.657 133.835C225.157 132.724 224.518 126.354 217.841 122.678C213.238 120.149 204.304 119.003 204.304 119.003C204.304 119.003 211.978 112.116 206.675 108.721C203.14 106.464 193.742 113.928 187.975 114.147C182.209 114.365 173.992 115.205 170.124 117.428C170.124 117.428 174.648 109.719 168.409 108.012C164.419 106.919 161.461 117.822 158.792 123.09C156.123 128.349 146.935 146.349 152.185 155.196L155.546 154.636H155.563V154.627Z" fill="black"/>
<path d="M217.622 160.078L216.791 145.824L210.587 145.474L207.813 157.926L217.622 160.078Z" fill="white"/>
<path d="M153.06 160.428L147.906 153.279" stroke="black" stroke-miterlimit="10" stroke-linecap="round"/>
<path d="M151.205 157.856L148.563 159.755" stroke="black" stroke-miterlimit="10" stroke-linecap="round"/>
<path d="M217.701 157.156L221.122 149.035" stroke="black" stroke-miterlimit="10" stroke-linecap="round"/>
<path d="M218.935 154.224L221.928 155.493" stroke="black" stroke-miterlimit="10" stroke-linecap="round"/>
</svg>
